<?xml version="1.0" standalone="no"?>
<!DOCTYPE svg PUBLIC "-//W3C//DTD SVG 1.1//EN" "http://www.w3.org/Graphics/SVG/1.1/DTD/svg11.dtd">
<svg t="1595744988600" class="icon" viewBox="0 0 1024 1024" version="1.1" xmlns="http://www.w3.org/2000/svg" p-id="2096" width="96" height="96" xmlns:xlink="http://www.w3.org/1999/xlink">
<defs>
<style type="text/css"></style>
</defs>
<path 
d="M512 96c229.376 0 416 186.624 416 416s-186.624 416-416 416A416.512 416.512 0 0 1 96 512c0-229.376 186.624-416 416-416z m0-64A480 480 0 0 0 32 512 480 480 0 0 0 512 992c265.152 0 480-214.848 480-480S777.152 32 512 32z m209.024 448.32l-256-186.688a28.288 28.288 0 0 0-32.512-0.96 38.784 38.784 0 0 0-16.512 32.64v373.312c0 13.568 6.336 26.048 16.512 32.64A28.352 28.352 0 0 0 448 736a28.352 28.352 0 0 0 16.96-5.696l256-186.688A39.04 39.04 0 0 0 736 512a39.36 39.36 0 0 0-14.976-31.68z" 
p-id="2097"
 >
</path>
</svg>