<?xml version="1.0" standalone="no"?><!DOCTYPE svg PUBLIC "-//W3C//DTD SVG 1.1//EN" "http://www.w3.org/Graphics/SVG/1.1/DTD/svg11.dtd"><svg t="1599033200754" class="icon" viewBox="0 0 1365 1024" version="1.1" xmlns="http://www.w3.org/2000/svg" p-id="2580" width="191.953125" height="144" xmlns:xlink="http://www.w3.org/1999/xlink"><defs><style type="text/css"></style></defs><path d="M117.418667 6.826667C81.92 15.018667 43.008 45.056 22.528 79.872L3.413333 112.64v800.085333l20.48 33.450667c12.970667 20.48 33.450667 40.96 53.930667 53.930667l33.450667 20.48h1141.418666l30.72-17.066667c40.96-22.528 73.045333-70.997333 78.506667-118.101333 2.048-19.114667 3.413333-201.386667 2.048-404.821334l-2.048-369.322666-20.48-33.450667c-12.970667-20.48-33.450667-40.96-53.930667-53.930667l-33.450666-20.48-557.056-1.365333C390.485333 1.365333 129.706667 3.413333 117.418667 6.826667z m1118.890666 83.968c12.288 8.192 30.037333 25.941333 38.229334 38.229333l15.701333 23.210667v719.530666l-15.701333 23.210667c-8.192 12.288-25.941333 30.037333-38.229334 38.229333l-23.210666 15.701334H152.234667l-28.672-21.162667c-49.834667-35.498667-48.469333-24.576-48.469334-421.205333V152.234667l15.701334-23.210667c8.192-12.288 25.941333-30.037333 38.229333-38.229333l23.210667-15.701334h1060.864l23.210666 15.701334z" p-id="2581" fill="#ffffff"></path><path d="M367.274667 200.704c-33.450667 8.874667-43.008 14.336-79.189334 47.786667-39.594667 36.181333-52.565333 68.266667-52.565333 130.389333 0 60.074667 9.557333 86.016 45.738667 124.245333l20.48 21.162667-19.114667 10.24c-33.450667 17.749333-83.285333 74.410667-103.082667 117.418667-16.384 35.498667-19.114667 49.152-19.114666 105.813333 0 64.170667 0 64.170667 18.432 70.997333C208.896 839.68 225.28 819.2 225.28 771.413333c0-63.488 16.384-106.496 56.661333-146.773333C404.138667 503.125333 607.573333 586.410667 607.573333 757.76c0 66.901333 27.989333 94.890667 60.757334 62.122667 10.24-10.24 12.288-21.162667 10.24-62.805334-1.365333-27.989333-6.826667-64.170667-12.970667-81.237333-15.701333-45.056-55.296-98.986667-92.842667-126.976l-32.768-23.893333 22.528-32.085334c30.72-43.008 40.277333-76.458667 36.864-126.293333-3.413333-50.517333-17.749333-83.285333-51.882666-117.418667-46.421333-47.104-118.101333-66.218667-180.224-48.469333zM477.866667 281.258667c35.498667 23.893333 49.834667 48.469333 53.248 89.429333 8.874667 106.496-111.274667 164.522667-193.194667 92.842667-55.978667-49.152-46.421333-144.042667 19.797333-184.32 30.72-19.114667 90.794667-17.749333 120.149334 2.048zM712.021333 307.2c-34.816 14.336-33.450667 55.296 2.048 68.266667 9.557333 4.096 114.005333 6.826667 236.885334 6.826666 247.125333 0 253.952-1.365333 253.952-40.96s-6.826667-40.96-256-40.277333c-122.197333 0-228.693333 2.730667-236.885334 6.144zM779.605333 502.442667c-16.384 11.605333-20.48 42.325333-6.826666 55.978666 11.605333 11.605333 415.744 11.605333 427.349333 0 13.653333-13.653333 9.557333-44.373333-6.826667-55.978666-12.970667-9.557333-44.373333-10.922667-206.848-10.922667s-193.877333 1.365333-206.848 10.922667zM860.16 687.445333c-23.893333 9.557333-28.672 51.882667-7.509333 63.488 17.749333 9.557333 324.949333 9.557333 342.698666 0 8.874667-5.461333 12.970667-14.336 12.970667-31.402666 0-19.114667-3.413333-24.576-17.749333-30.037334-17.749333-6.826667-312.661333-8.874667-330.410667-2.048z" p-id="2582" fill="#ffffff"></path></svg>