<svg t="1599033362453" class="icon" viewBox="0 0 1024 1024" version="1.1" xmlns="http://www.w3.org/2000/svg" p-id="3559" width="144" height="144"><path d="M921.7 154.9c28.2 0 51.2 23 51.2 51.2v612c0 28.2-23 51.2-51.2 51.2H102.5c-28.2 0-51.2-23-51.2-51.2v-612c0-28.2 23-51.2 51.2-51.2h819.2m0-51.2H102.5C46 103.7 0.1 149.6 0.1 206.1v612c0 56.6 45.8 102.4 102.4 102.4H921.7c56.6 0 102.4-45.8 102.4-102.4v-612c0-56.5-45.8-102.4-102.4-102.4z" fill="#ffffff" p-id="3560"></path><path d="M925.8 257.3h-88.4l-76.8 204.8H849l76.8-204.8zM177.2 410.9H126v51.2h51.2v-51.2zM279.6 410.9h-51.2v51.2h51.2v-51.2zM976.3 680.5H46.6v51.2h929.7v-51.2zM382 410.9h-51.2v51.2H382v-51.2zM666.7 257.3h-51.2l-76.8 204.8h51.2l76.8-204.8zM767.3 257.3h-51.2l-76.8 204.8h51.2l76.8-204.8z" fill="#ffffff" p-id="3561"></path></svg>