<svg t="1599033441983" class="icon" viewBox="0 0 1024 1024" version="1.1" xmlns="http://www.w3.org/2000/svg" p-id="4685" width="144" height="144"><path d="M481.1 876.2c17.1 17.1 44.9 17.1 62.1 0s17.1-44.9 0-62.1c-17.1-17.1-44.9-17.1-62 0-17.3 17.2-17.3 45-0.1 62.1zM675.7 713.6c-8.2 0-16.4-3.1-22.6-9.4-77.7-77.7-204.2-77.7-281.9 0-12.5 12.5-32.8 12.5-45.3 0s-12.5-32.8 0-45.3c49.7-49.7 115.9-77.1 186.2-77.1s136.5 27.4 186.2 77.1c12.5 12.5 12.5 32.8 0 45.3-6.2 6.3-14.4 9.4-22.6 9.4zM991.6 397.7c-8.2 0-16.4-3.1-22.6-9.4-251.9-251.9-661.9-251.9-913.8 0-12.5 12.5-32.8 12.5-45.3 0s-12.5-32.8 0-45.3c67.8-67.8 146.8-120.3 234.9-156 85.1-34.5 175-52 267.2-52s182.1 17.5 267.2 52c88.1 35.7 167.1 88.2 234.9 156 12.5 12.5 12.5 32.8 0 45.3-6.1 6.3-14.3 9.4-22.5 9.4z" fill="#ffffff" p-id="4686"></path><path d="M835.1 554.3c-8.2 0-16.4-3.1-22.6-9.4-80.3-80.2-187-124.4-300.4-124.4S292 464.7 211.8 544.9c-12.5 12.5-32.8 12.5-45.3 0s-12.5-32.8 0-45.3c46.6-46.6 101-82.8 161.7-107.4 58.6-23.7 120.4-35.8 183.9-35.8s125.3 12 183.9 35.8c60.6 24.6 115 60.7 161.7 107.4 12.5 12.5 12.5 32.8 0 45.3-6.3 6.2-14.5 9.4-22.6 9.4z" fill="#ffffff" p-id="4687"></path></svg>