<?xml version="1.0" standalone="no"?>
<!DOCTYPE svg PUBLIC "-//W3C//DTD SVG 1.1//EN" "http://www.w3.org/Graphics/SVG/1.1/DTD/svg11.dtd">
<svg xmlns="http://www.w3.org/2000/svg" xmlns:xlink="http://www.w3.org/1999/xlink" width="40" height="40" class="icon" p-id="6346" style="" t="1556013426835" version="1.1" viewBox="0 0 1024 1024">
    <defs>
        <style type="text/css"/>
    </defs>
    <path d="M526.9504 896.4096v-20.48L133.12 492.3392c-40.96-46.08-61.44-92.16-61.44-158.5152 0-133.12 97.28-215.04 214.8352-215.04 102.4 0 189.2352 61.44 225.0752 148.2752C547.4304 180.224 634.4704 118.784 736.6656 118.784c128 0 214.8352 76.8 214.8352 214.8352 0 25.6-5.12 51.2-10.24 76.8h71.68c5.12-25.6 10.24-51.2 10.24-76.8C1023.1808 175.104 895.3856 47.104 736.6656 47.104c-92.16 0-173.8752 40.96-225.0752 112.64-56.32-71.68-138.0352-112.64-225.0752-112.64C128 47.104 0 175.104 0 333.6192c0 76.8 30.72 143.1552 81.92 199.4752l404.0704 404.0704 30.72 30.72 10.24 10.24v-81.7152z m0 0" p-id="6347"/>
    <path d="M957.8496 615.0144l-104.8576 104.8576 104.8576 104.8576-36.2496 36.2496-104.8576-104.8576-115.712 115.712-39.7312-39.7312 115.712-115.712-112.2304-112.2304 36.2496-36.2496 112.2304 112.2304 104.8576-104.8576 39.7312 39.7312z m0 0" p-id="6348"/>
</svg>
