<?xml version="1.0" standalone="no"?>
<!DOCTYPE svg PUBLIC "-//W3C//DTD SVG 1.1//EN" "http://www.w3.org/Graphics/SVG/1.1/DTD/svg11.dtd">
<svg t="1585891692784" class="icon" viewBox="0 0 1024 1024" version="1.1" xmlns="http://www.w3.org/2000/svg" p-id="1795" width="96" height="96" xmlns:xlink="http://www.w3.org/1999/xlink">
    <defs>
        <style type="text/css"/>
    </defs>
    <path d="M1021.531203 546.138824c-1.453185-7.532148-3.740334-15.10695-6.701126-21.930155l-0.183855-0.436838-0.201504-0.407421c-7.170322-15.805597-17.086695-30.808118-29.503487-44.585433-12.990418-14.443603-25.474869-24.776222-38.178474-31.617077-6.658472-3.463817-13.340477-6.176038-21.047654-8.577912a110.162628 110.162628 0 0 0-27.363421-4.678728 89.976883 89.976883 0 0 0-3.677089-0.073541c-9.56043 0-19.223818 1.481131-28.732769 4.430156-11.14599 3.435871-21.878676 9.242729-31.840644 17.224953l-0.601571 0.480963-0.585393 0.501555c-4.900823 4.158052-10.560598 9.357455-16.851361 15.443771a1125.38027 1125.38027 0 0 1-14.49067 13.915574l-4.153639 3.968314-0.144142-0.142671-3.034333 3.141704-32.065682 30.434525 1.275214 1.304631-2.573962 2.676921-112.265922 115.78269-42.305638 43.636744-38.101991 39.327196c-11.69167 12.031433-21.481551 22.183139-29.296099 30.488946l-12.565346 13.194864-1.769415 1.862078c-7.273281 7.486552-13.158093 14.793662-17.701504 22.031643-3.740334 5.883341-7.239452 12.521222-10.285552 19.581231-2.929904 5.911287-5.762733 13.330181-9.2089 23.974617-2.941671 9.05005-5.987771 19.063497-9.129475 29.968271a2676.54826 2676.54826 0 0 0-8.50437 30.115354c-3.446167 12.709488-5.399437 21.597747-6.423138 29.040174-3.562363 23.826062 0.925155 44.398637 13.409606 60.451334 7.486552 9.407463 23.831946 24.421751 53.175111 24.42175 3.643259 0 7.468902-0.220625 11.398974-0.666288l1.051648-0.119138 1.051647-0.1765c6.25105-0.997226 14.202386-2.828416 25.764623-5.928938 9.82518-2.648975 20.279878-5.820096 31.971549-9.686921a873.712983 873.712983 0 0 0 31.472935-11.191587c10.829761-4.171289 19.069381-7.704236 25.423389-10.859177 8.336695-3.878593 16.35716-8.866196 23.837829-14.846613 5.002311-3.912422 9.592788-7.785132 13.737603-11.613716 3.516767-2.985796 7.754244-7.227685 16.098293-15.764413a13796.493172 13796.493172 0 0 0 27.99588-29.153428c10.136997-10.673852 21.834551-22.656748 36.948856-37.89019l0.310346-0.310347 0.304463-0.327996 41.786433-43.586735 112.087951-115.610602 36.231088-37.356277-0.120608-0.120609 0.413304-0.375063a225.014279 225.014279 0 0 0 10.353211-9.959026c2.21802-2.298916 4.849344-4.91259 7.854261-7.867498a842.240048 842.240048 0 0 0 12.082912-12.178517l0.769247-0.781014 0.716297-0.804547c8.244032-9.2442 14.480374-19.470919 18.519288-30.416875 3.956547-10.567952 6.00395-21.70953 6.00395-32.904059 0.005883-8.366112-0.817784-16.599848-2.437174-24.454109z m-238.976919 235.598411l-41.792317 43.573498c-13.884686 13.994999-26.423557 26.811858-37.575431 38.552066a8384.277896 8384.277896 0 0 1-27.664942 28.784248c-7.336527 7.524794-11.685787 11.8667-13.078669 12.869809-3.453521 3.27555-7.467431 6.670238-12.000545 10.219365-4.505169 3.600605-9.205959 6.505505-14.087662 8.711758-4.89494 2.48277-12.0079 5.521516-21.396242 9.141241a852.868304 852.868304 0 0 1-29.504957 10.491469c-10.26496 3.402042-20.028365 6.377542-29.256387 8.864725-9.22655 2.48277-16.087997 4.11981-20.643174 4.849344a48.22575 48.22575 0 0 1-5.665658 0.341234c-6.281938 0-10.657673-1.534081-13.118381-4.624306-3.125525-4.016851-3.993318-10.623844-2.607791-19.925407 0.689822-5.039082 2.356278-12.312363 4.942007-21.86691a2735.481691 2735.481691 0 0 1 8.360228-29.568203c2.959321-10.270843 5.820096-19.70184 8.61027-28.282694 2.791646-8.624979 5.046436-14.555387 6.802614-17.782399 2.073878-5.009665 4.431627-9.600142 7.062951-13.714069 2.579845-4.125693 6.343713-8.69852 11.209237-13.71554 2.103295-2.20037 6.986468-7.285048 14.637754-15.359934 7.64099-8.129307 17.21907-18.057446 28.721002-29.893258l38.103461-39.316901 42.298284-43.641156 112.260039-115.788573 97.66641 101.25819-112.290926 115.816519v0.005884h0.008825z m187.456497-197.149303c-1.735586 4.689023-4.509581 9.151538-8.360228 13.461085a721.615368 721.615368 0 0 1-11.234241 11.315137 579.579738 579.579738 0 0 0-8.601445 8.619095c-2.775466 2.837241-5.400907 5.377374-7.814548 7.526265L836.335379 524.810241a1278.700149 1278.700149 0 0 0 14.880442-14.29652c5.743612-5.565641 10.542948-9.944318 14.373003-13.202218 4.862582-3.896243 9.928139-6.717305 15.127542-8.330812 4.722852-1.464952 9.394226-2.190074 13.955286-2.190074 0.482434 0 0.964868 0 1.453185 0.025004 5.027315 0.216213 9.920785 0.994285 14.611279 2.413641 4.711086 1.470835 8.791183 3.084342 12.260883 4.89494 7.336527 3.946251 15.437888 10.823878 24.31438 20.685829 8.888258 9.879601 15.72323 20.201924 20.624054 30.990501 1.401706 3.252017 2.523954 7.004118 3.354975 11.319549 0.886914 4.308077 1.319339 8.773533 1.319339 13.466969 0.016179 4.650781-0.833964 9.310388-2.598966 14.000882z" p-id="1796"/>
    <path d="M352.962983 953.376369H136.064774c-37.265085 0-67.583415-31.268489-67.583414-69.707301V140.34417c0-38.425574 30.31833-69.680826 67.583414-69.680826H856.750574c37.259202 0 67.561352 31.255252 67.561352 69.680826v189.20385c0 19.500335 15.3364 35.305932 34.236635 35.305932 18.903176 0 34.236635-15.805597 34.236635-35.305932V140.348582c0-77.355645-61.033785-140.302986-136.034622-140.302986H136.064774C61.046287 0.045596 0.018385 62.992937 0.018385 140.348582v743.323427c0 77.371824 61.027901 140.327991 136.046389 140.327991h216.898209c18.906118 0 34.235164-15.817364 34.235165-35.311816 0-19.500335-15.33493-35.305932-34.235165-35.305932v-0.005883z" p-id="1797"/>
    <path d="M768.081264 230.478432c0-19.500335-15.340813-35.305932-34.235165-35.305932H246.021485c-18.907589 0-34.241048 15.805597-34.241047 35.305932 0 19.504748 15.333459 35.311816 34.241047 35.311816h487.823144c18.897293 0 34.236635-15.807068 34.236635-35.311816zM246.021485 381.480275c-18.907589 0-34.235164 15.805597-34.235164 35.300049 0 19.506219 15.327575 35.311816 34.235164 35.311816h336.60803c18.907589 0 34.236635-15.805597 34.236635-35.311816 0-19.494452-15.329046-35.300049-34.236635-35.300049H246.021485z m191.121819 199.159935H246.021485c-18.907589 0-34.235164 15.804126-34.235164 35.300049 0 19.506219 15.327575 35.311816 34.235164 35.311815h191.121819c18.904647 0 34.232222-15.805597 34.232223-35.311815 0-19.488569-15.327575-35.300049-34.232223-35.300049z" p-id="1798"/>
</svg>
