<?xml version="1.0" standalone="no"?>
<!DOCTYPE svg PUBLIC "-//W3C//DTD SVG 1.1//EN" "http://www.w3.org/Graphics/SVG/1.1/DTD/svg11.dtd">
<svg t="1598342858445" class="icon" viewBox="0 0 1024 1024" version="1.1" xmlns="http://www.w3.org/2000/svg" p-id="3160"
  width="96" height="96">
  <path
    d="M512 983.552a455.168 455.168 0 0 1-455.168-454.656V115.2a32.768 32.768 0 0 1 10.752-24.064 29.696 29.696 0 0 1 24.576-9.216 1377.792 1377.792 0 0 0 409.6-40.448 29.696 29.696 0 0 1 16.384 0 1377.792 1377.792 0 0 0 409.6 40.448 30.72 30.72 0 0 1 24.576 9.216 32.768 32.768 0 0 1 10.752 24.064v413.696A455.168 455.168 0 0 1 512 983.552zM123.904 150.528v378.368a388.096 388.096 0 0 0 776.192 0V150.528A1455.616 1455.616 0 0 1 512 108.544a1433.6 1433.6 0 0 1-388.096 41.984z"
    p-id="3161"></path>
  <path
    d="M476.672 665.6a33.28 33.28 0 0 1-20.992-7.68l-141.824-115.712A34.304 34.304 0 0 1 307.2 494.592a33.792 33.792 0 0 1 51.2-5.12l114.688 94.208L665.6 371.712a33.28 33.28 0 1 1 51.2 45.056l-215.04 235.52a34.816 34.816 0 0 1-25.088 13.312z"
    p-id="3162"></path>
</svg>