<?xml version="1.0" standalone="no"?>
<!DOCTYPE svg PUBLIC "-//W3C//DTD SVG 1.1//EN" "http://www.w3.org/Graphics/SVG/1.1/DTD/svg11.dtd">
<svg xmlns="http://www.w3.org/2000/svg" xmlns:xlink="http://www.w3.org/1999/xlink" width="40" height="40" class="icon" p-id="8637" style="" t="1553234134886" version="1.1" viewBox="0 0 1024 1024">
    <defs>
        <style type="text/css"/>
    </defs>
    <path d="M455.052 541.8l122.765 122.744 118.564-118.543c6.96-6.96 16.594-11.286 27.232-11.286h265.07c0.523-9.217 0.837-18.496 0.837-27.86 0-263.46-213.574-477.034-477.035-477.034-251.946 0-458.268 195.35-475.802 442.843h226.49l134.51-134.49a38.518 38.518 0 0 1 54.443 0l149.997 149.977a38.539 38.539 0 0 1-54.464 54.464L424.894 419.871 306.351 538.414A38.455 38.455 0 0 1 279.12 549.7H37.393c21.652 243.398 226.093 434.233 475.092 434.233 227.43 0 417.659-159.172 465.456-372.182h-238.36l-134.49 134.49a38.539 38.539 0 0 1-54.464 0L400.63 596.265a38.476 38.476 0 1 1 54.422-54.465z" p-id="8638"/>
</svg>
