<?xml version="1.0" standalone="no"?>
<!DOCTYPE svg PUBLIC "-//W3C//DTD SVG 1.1//EN" "http://www.w3.org/Graphics/SVG/1.1/DTD/svg11.dtd">
<svg xmlns="http://www.w3.org/2000/svg" xmlns:xlink="http://www.w3.org/1999/xlink" width="40" height="40" class="icon" p-id="10928" style="" t="1553234188676" version="1.1" viewBox="0 0 1024 1024">
    <defs>
        <style type="text/css"/>
    </defs>
    <path d="M512 947.374c240.457 0 435.374-194.917 435.374-435.374s-194.917-435.374-435.374-435.374-435.374 194.917-435.374 435.374 194.917 435.374 435.374 435.374zM512 707.787s-144.718-102.314-199.314-180.592c-20.114-28.909-38.182-56.381-38.182-94.345 0-65.567 53.16-118.727 118.726-118.727 48.457 0 90.078 29.082 108.538 70.706 1.436 4.137 5.442 7.271 10.231 7.271s8.794-3.178 10.145-7.488c18.633-41.491 60.168-70.487 108.582-70.487 65.567 0 118.727 53.16 118.727 118.726 0 37.965-18.025 65.436-38.183 94.345-54.551 78.325-199.271 180.594-199.271 180.594zM512 707.787z" p-id="10929"/>
</svg>
