<?xml version="1.0" standalone="no"?>
<!DOCTYPE svg PUBLIC "-//W3C//DTD SVG 1.1//EN" "http://www.w3.org/Graphics/SVG/1.1/DTD/svg11.dtd">
<svg xmlns="http://www.w3.org/2000/svg" xmlns:xlink="http://www.w3.org/1999/xlink" width="40" height="40" class="icon" p-id="10095" style="" t="1553234173426" version="1.1" viewBox="0 0 1024 1024">
    <defs>
        <style type="text/css"/>
    </defs>
    <path d="M512 0C229.180952 0 0 229.180952 0 512c0 53.638095 7.314286 104.838095 24.380952 153.6l31.695238-34.133333 156.038096-165.790477c-2.438095-7.314286-4.87619-14.628571-4.876191-21.942857 0-36.571429 29.257143-65.828571 65.828572-65.828571s65.828571 29.257143 65.828571 65.828571c0 9.752381-2.438095 17.066667-4.87619 24.380953l121.904762 134.095238c7.314286-2.438095 17.066667-4.87619 26.819047-4.876191 9.752381 0 19.504762 2.438095 26.819048 4.876191l185.295238-202.361905c-2.438095-7.314286-4.87619-14.628571-4.876191-24.380952 0-36.571429 29.257143-65.828571 65.828572-65.828572s65.828571 29.257143 65.828571 65.828572-29.257143 65.828571-65.828571 65.828571c-7.314286 0-12.190476 0-17.066667-2.438095l-190.171428 207.238095v12.190476c0 36.571429-29.257143 65.828571-65.828572 65.828572-36.571429 0-65.828571-29.257143-65.828571-65.828572 0-4.87619 0-9.752381 2.438095-14.628571L292.571429 502.247619c-4.87619 2.438095-12.190476 2.438095-17.066667 2.438095s-12.190476 0-19.504762-2.438095l-158.47619 170.666667-46.32381 51.2C126.780952 902.095238 304.761905 1024 512 1024c282.819048 0 512-229.180952 512-512S794.819048 0 512 0z" p-id="10096"/>
</svg>
