<?xml version="1.0" standalone="no"?>
<!DOCTYPE svg PUBLIC "-//W3C//DTD SVG 1.1//EN" "http://www.w3.org/Graphics/SVG/1.1/DTD/svg11.dtd">
<svg t="1585891744905" class="icon" viewBox="0 0 1137 1024" version="1.1" xmlns="http://www.w3.org/2000/svg" p-id="2346" width="106.59375" height="96" xmlns:xlink="http://www.w3.org/1999/xlink">
    <defs>
        <style type="text/css"/>
    </defs>
    <path d="M1057.033481 1024H80.744296C36.067556 1024 0 988.48237 0 944.488296V661.997037l29.202963 0.568889h2.863407c83.019852 0 151.172741-67.678815 151.172741-150.565926S115.674074 362.002963 32.047407 361.434074H29.202963L0 362.002963V79.511704C0 35.51763 36.067556 0 80.744296 0h976.289185C1101.710222 0 1137.777778 35.51763 1137.777778 79.511704V361.434074h-28.634074c-83.588741 0-151.74163 67.659852-151.74163 150.546963s68.152889 150.565926 151.74163 150.565926H1137.777778v281.92237C1137.777778 987.913481 1101.710222 1024 1057.033481 1024zM57.837037 717.255111v227.233185c0 12.970667 10.296889 23.134815 23.476148 23.134815h976.308148c12.591407 0 23.476148-10.733037 23.476148-23.134815V716.686222c-101.357037-14.089481-180.375704-100.370963-180.375703-204.686222s78.449778-191.146667 180.375703-204.686222V79.511704c0-12.970667-10.315852-23.134815-23.476148-23.134815H81.313185c-12.591407 0-23.476148 10.733037-23.476148 23.134815v227.233185c103.063704 12.401778 182.651259 99.802074 182.651259 205.255111 0 105.434074-79.587556 192.284444-182.651259 205.255111z" p-id="2347"/>
    <path d="M748.392296 815.407407H389.385481C373.096296 815.407407 360.296296 802.929778 360.296296 787.057778c0-15.872 12.8-28.330667 29.089185-28.330667h359.006815c16.289185 0 29.089185 12.458667 29.089185 28.330667S764.681481 815.407407 748.392296 815.407407z m-179.2-372.963555c-71.585185 0-129.175704-56.699259-129.175703-126.407111 0-69.726815 58.17837-126.407111 129.15674-126.407111 71.566222 0 129.175704 56.699259 129.175704 126.407111s-57.609481 126.407111-129.175704 126.407111z m0-196.702815c-38.987852 0-70.997333 31.175111-70.997333 69.726815 0 38.532741 32.009481 69.726815 70.97837 69.726815 38.987852 0 70.997333-31.194074 70.997334-69.726815 0-38.551704-32.009481-69.726815-70.997334-69.726815z" p-id="2348"/>
    <path d="M748.35437 587.851852c-16.308148 0-29.146074-11.927704-29.146074-27.098074 0-70.428444-67.584-127.317333-150.319407-127.317334-82.735407 0-150.319407 57.438815-150.319408 127.317334 0 15.17037-12.818963 27.098074-29.146074 27.098074-16.308148 0-29.127111-11.927704-29.127111-27.098074C360.296296 460.534519 454.106074 379.259259 568.888889 379.259259c115.370667 0 208.592593 81.275259 208.592592 181.494519 0 15.17037-12.818963 27.098074-29.127111 27.098074z" p-id="2349"/>
</svg>
