<?xml version="1.0" standalone="no"?>
<!DOCTYPE svg PUBLIC "-//W3C//DTD SVG 1.1//EN" "http://www.w3.org/Graphics/SVG/1.1/DTD/svg11.dtd">
<svg t="1585891829428" class="icon" viewBox="0 0 1026 1024" version="1.1" xmlns="http://www.w3.org/2000/svg" p-id="2528" width="96.1875" height="96" xmlns:xlink="http://www.w3.org/1999/xlink">
    <defs>
        <style type="text/css"/>
    </defs>
    <path d="M702.938 1023.849a37.502 37.502 0 0 1-26.904-11.172 38.046 38.046 0 0 1 0-53.777l285.644-285.644a38.046 38.046 0 0 1 53.777 53.777L729.81 1012.677a37.955 37.955 0 0 1-26.873 11.172z" p-id="2529"/>
    <path d="M702.968 1022.46a37.502 37.502 0 0 1-26.904-11.172l-178.15-177.969a38.046 38.046 0 0 1 53.777-53.777L729.66 957.511a38.046 38.046 0 0 1 0 53.777 37.442 37.442 0 0 1-26.692 11.172z" p-id="2530"/>
    <path d="M409.715 972.276H114.167A114.318 114.318 0 0 1 0 858.11V114.167A114.318 114.318 0 0 1 114.167 0h744.184a114.318 114.318 0 0 1 114.167 114.167v445.224a38.046 38.046 0 1 1-76.091 0V114.167a38.166 38.166 0 0 0-38.046-38.046H114.167a38.166 38.166 0 0 0-38.046 38.046v744.184a38.166 38.166 0 0 0 38.046 38.045h295.548a37.985 37.985 0 1 1 0 75.97z" p-id="2531"/>
    <path d="M440.423 413.399l-48.704 13.557a75.487 75.487 0 0 0-71.653-54.019q-79.715 3.986-83.851 104.022 1.328 101.425 81.043 104.021a73.072 73.072 0 0 0 78.507-66.217l49.972 12.078a115.858 115.858 0 0 1-127.09 93.242q-128.42-2.657-131.167-143.215 2.657-141.916 135.213-145.992a121.384 121.384 0 0 1 117.73 82.523z" p-id="2532"/>
    <path d="M321.666 628.507h-3.02a137.628 137.628 0 0 1-102.934-39.857 165.378 165.378 0 0 1-36.233-111.51v-0.211a165.68 165.68 0 0 1 37.29-112.9 144.12 144.12 0 0 1 105.682-41.094h0.514A129.838 129.838 0 0 1 448.032 410.5l3.563 8.636-64.95 18.116-2.656-7.095a67.395 67.395 0 0 0-63.923-48.705c-48.312 2.657-72.92 34-75.487 95.9 0.875 62.775 24.85 94.117 73.071 95.778a65.07 65.07 0 0 0 70.022-59.756l1.782-8.243 66.429 16.094-2.023 8.122a122.954 122.954 0 0 1-132.194 99.16zM195.965 476.93c1.781 89.165 42.001 133.31 123.044 134.97h2.778a106.256 106.256 0 0 0 113.895-79.02l-33.727-8.242a91.37 91.37 0 0 1-27.78 46.68 81.949 81.949 0 0 1-56.826 17.756 83.187 83.187 0 0 1-66.43-30.558 134.609 134.609 0 0 1-22.706-81.677v-0.513a135.877 135.877 0 0 1 24.73-80.802 87.112 87.112 0 0 1 66.851-31.07h0.755a82.523 82.523 0 0 1 76.091 52.388l32.34-9.059a111.298 111.298 0 0 0-106.045-68.874c-83.7 2.929-125.34 47.95-126.97 138.02zM747.233 616.067L720.21 548.46H594.508l-28.414 67.607H517.39l117.579-281.085h44.658l117.579 281.085z m-136.48-108.068h93.241l-37.804-98.677a80.409 80.409 0 0 1-6.733-27.024h-1.39a88.2 88.2 0 0 1-8.122 27.024z" p-id="2533"/>
    <path d="M809.616 624.31h-67.999l-27.024-67.606h-114.74l-28.414 67.606h-66.43l124.434-297.57h55.559z m-56.827-16.486h32.098L674.162 343.226h-33.607L529.83 607.824h30.83l28.413-67.607h136.722z m-36.898-91.582H598.433l43.873-110.362a88.048 88.048 0 0 0 7.488-24.488l0.755-7.368h17v8.244a71.109 71.109 0 0 0 6.22 24.155z m-93.09-16.486h69.115l-33.486-87.565c0-0.393-0.241-0.634-0.392-1.027 0 0.393-0.393 0.876-0.514 1.268zM761.546 223.231l-73.555-64.678-73.555 64.678V36.777h147.14z" p-id="2534"/>
</svg>
