<?xml version="1.0" standalone="no"?>
<!DOCTYPE svg PUBLIC "-//W3C//DTD SVG 1.1//EN" "http://www.w3.org/Graphics/SVG/1.1/DTD/svg11.dtd">
<svg xmlns="http://www.w3.org/2000/svg" xmlns:xlink="http://www.w3.org/1999/xlink" width="40" height="40" class="icon" p-id="10486" style="" t="1556013829472" version="1.1" viewBox="0 0 1024 1024">
    <defs>
        <style type="text/css"/>
    </defs>
    <path d="M998.4 412.311704c-12.060444 0-21.69363-8.51437-24.424296-19.740445H972.8V147.77837h-2.88237c1.687704-6.33363 2.88237-12.875852 2.88237-19.740444 0-11.131259-2.484148-21.636741-6.731852-31.194074l-569.059555 569.078518a25.618963 25.618963 0 0 1-36.21926-36.219259L930.645333 59.847111a75.908741 75.908741 0 0 0-34.645333-8.609185c-2.920296 0-5.688889 0.549926-8.533333 0.853333v-0.853333H631.466667v-1.72563a25.391407 25.391407 0 0 1-17.066667-23.87437c0-11.112296 7.168-20.328296 17.066667-23.87437V0.037926h290.133333v2.578963a128.037926 128.037926 0 0 1 99.612444 99.821037H1024v290.133333h-1.194667c-2.711704 11.226074-12.344889 19.740444-24.405333 19.740445zM452.266667 51.237926c-3.034074 0-5.840593-0.758519-8.533334-1.72563v7.300741C221.696 89.865481 51.2 280.76563 51.2 512c0 254.482963 206.317037 460.8 460.8 460.8 231.23437 0 422.134519-170.496 455.186963-392.533333h6.788741c-0.455111-1.915259-1.175704-3.754667-1.175704-5.82163a25.6 25.6 0 1 1 51.2 0c0 6.883556-2.787556 13.084444-7.205926 17.673482C978.204444 836.683852 767.412148 1024 512 1024 229.224296 1024 0 794.775704 0 512 0 255.260444 189.231407 43.501037 435.655111 6.523259c4.494222-3.90637 10.202074-6.485333 16.611556-6.485333a25.6 25.6 0 1 1 0 51.2z" p-id="10487"/>
</svg>
