<?xml version="1.0" encoding="utf-8"?>
<!-- Generator: Adobe Illustrator 21.1.0, SVG Export Plug-In . SVG Version: 6.00 Build 0)  -->
<svg version="1.1" id="Layer_1" xmlns="http://www.w3.org/2000/svg" xmlns:xlink="http://www.w3.org/1999/xlink" x="0px" y="0px"
	 viewBox="0 0 357.6 79.6" style="enable-background:new 0 0 357.6 79.6;" xml:space="preserve">
<style type="text/css">
	.st0{fill:#C4D701;}
	.st1{fill:#613F95;}
	.st2{fill:#E5042C;}
	.st3{fill:#717372;}
	.st4{fill:none;stroke:#BB501F;stroke-miterlimit:10;}
</style>
<g>
	<g>
		<g>
			<g>
				<path class="st0" d="M134.4,13.8c0,0-8.6,5.1-24.2,6.3c-15.5,1.2-17,11.1-15.5,15.7c1.6,5.2,13.7,23.1,53,21.4
					c-13.4-2.6-39.8-10.2-42.8-20.8c-3.4-11.9,5.8-11.4,14.1-14.3C128.6,18.8,134.4,13.8,134.4,13.8z"/>
				<path class="st0" d="M104.5,51c0,0,3.3,1.7,6,2.4c2.4,0.5,5,0.9,5,0.9s-8,0.2-11.8,3.5c-4.6,4-6.1,8.6-6.1,8.6
					s-1.5-6.7,0.8-10.5C101.2,51.3,104.5,51,104.5,51z"/>
				<ellipse transform="matrix(0.9339 -0.3574 0.3574 0.9339 0.9306 35.4772)" class="st0" cx="96.4" cy="15.2" rx="5.5" ry="5.5"/>
			</g>
			<g>
				<g>
					<path class="st1" d="M27.5,21.6c0,0,12.7,1.9,31.9-4.1c19.1-6,25.5,5,26,11.2c0.6,7-5.2,34.1-52.8,51
						C47.2,70,75,48.3,73.4,34.2C71.7,18.4,61,23.4,49.8,24C36.8,24.7,27.5,21.6,27.5,21.6z"/>
					<path class="st1" d="M81.1,51.4c0,0-3.1,3.7-6.1,5.7c-2.6,1.8-5.5,3.4-5.5,3.4s9.6-3.6,15.8-1.5c7.4,2.6,11.5,7.3,11.5,7.3
						s-1.4-8.7-6.1-12.1C85.1,50.1,81.1,51.4,81.1,51.4z"/>
					<path class="st1" d="M87.2,6.9c0.1,3.9-3,7.1-6.9,7.2c-3.9,0.1-7.2-3-7.2-6.9c-0.1-3.9,3-7.1,7-7.2C83.9-0.1,87.2,3,87.2,6.9z"
						/>
					<path class="st2" d="M135.1,14.7c0,0-19.2,28.5-104.3,31.2C-11.9,47.3,27,23.1,27,23.1s-48.8,19.5-15.2,27.5
						C42.1,57.8,125.8,39.8,135.1,14.7z"/>
				</g>
			</g>
		</g>
	</g>
	<g>
		<g>
			<path class="st3" d="M167.1,58.9c0,0.1-0.1,0.2-0.2,0.3c-0.1,0.1-0.2,0.1-0.3,0.2c-0.1,0-0.3,0.1-0.5,0.1c-0.2,0-0.4,0-0.7,0
				c-0.3,0-0.5,0-0.7,0c-0.2,0-0.3,0-0.5-0.1c-0.1,0-0.2-0.1-0.3-0.2c-0.1-0.1-0.1-0.2-0.1-0.3L160.3,46h0L157,58.9
				c0,0.1-0.1,0.2-0.1,0.3c-0.1,0.1-0.1,0.1-0.3,0.2c-0.1,0-0.3,0.1-0.4,0.1c-0.2,0-0.4,0-0.7,0c-0.3,0-0.5,0-0.7,0
				c-0.2,0-0.4,0-0.5-0.1c-0.1,0-0.2-0.1-0.3-0.2c-0.1-0.1-0.1-0.2-0.1-0.3l-4.5-15.8c-0.1-0.2-0.1-0.4-0.1-0.5c0-0.1,0-0.2,0.1-0.3
				c0.1-0.1,0.2-0.1,0.4-0.1c0.2,0,0.4,0,0.7,0c0.3,0,0.5,0,0.6,0c0.2,0,0.3,0,0.4,0.1c0.1,0,0.1,0.1,0.2,0.1c0,0.1,0.1,0.1,0.1,0.2
				l3.8,14.3h0l3.6-14.3c0-0.1,0.1-0.2,0.1-0.2c0-0.1,0.1-0.1,0.2-0.2c0.1,0,0.2-0.1,0.4-0.1c0.2,0,0.4,0,0.6,0c0.2,0,0.4,0,0.6,0
				s0.3,0,0.3,0.1c0.1,0,0.2,0.1,0.2,0.2c0,0.1,0.1,0.1,0.1,0.2l3.9,14.3h0l3.8-14.3c0-0.1,0.1-0.2,0.1-0.2c0-0.1,0.1-0.1,0.2-0.2
				c0.1,0,0.2-0.1,0.4-0.1c0.2,0,0.4,0,0.6,0c0.3,0,0.5,0,0.6,0c0.2,0,0.3,0.1,0.3,0.1c0.1,0.1,0.1,0.1,0.1,0.3c0,0.1,0,0.3-0.1,0.5
				L167.1,58.9z"/>
			<path class="st3" d="M183.6,52.6c0,0.3-0.1,0.6-0.3,0.7c-0.2,0.1-0.4,0.2-0.6,0.2H175c0,0.7,0.1,1.3,0.2,1.8
				c0.1,0.5,0.4,1,0.7,1.4c0.3,0.4,0.7,0.7,1.2,0.9c0.5,0.2,1.1,0.3,1.8,0.3c0.6,0,1.1,0,1.5-0.1c0.4-0.1,0.8-0.2,1.1-0.3
				c0.3-0.1,0.6-0.2,0.8-0.3c0.2-0.1,0.4-0.1,0.5-0.1c0.1,0,0.1,0,0.2,0c0,0,0.1,0.1,0.1,0.1c0,0.1,0,0.1,0.1,0.3c0,0.1,0,0.2,0,0.4
				c0,0.1,0,0.2,0,0.3c0,0.1,0,0.2,0,0.2c0,0.1,0,0.1-0.1,0.2c0,0.1-0.1,0.1-0.1,0.2c0,0-0.2,0.1-0.4,0.2c-0.2,0.1-0.5,0.2-0.9,0.3
				c-0.4,0.1-0.8,0.2-1.3,0.3c-0.5,0.1-1,0.1-1.6,0.1c-1,0-1.8-0.1-2.6-0.4c-0.7-0.3-1.4-0.7-1.9-1.2c-0.5-0.5-0.9-1.2-1.1-2
				c-0.3-0.8-0.4-1.7-0.4-2.8c0-1,0.1-1.9,0.4-2.7c0.3-0.8,0.6-1.5,1.1-2.1c0.5-0.6,1.1-1,1.8-1.3c0.7-0.3,1.5-0.5,2.4-0.5
				c0.9,0,1.7,0.1,2.4,0.4c0.7,0.3,1.2,0.7,1.6,1.2c0.4,0.5,0.7,1.1,0.9,1.8c0.2,0.7,0.3,1.4,0.3,2.2V52.6z M181.5,52
				c0-1.1-0.2-2-0.8-2.7c-0.5-0.7-1.3-1-2.4-1c-0.5,0-1,0.1-1.4,0.3c-0.4,0.2-0.7,0.5-1,0.8c-0.3,0.3-0.5,0.7-0.6,1.2
				c-0.2,0.4-0.2,0.9-0.3,1.4H181.5z"/>
			<path class="st3" d="M189.1,59.1c0,0.1,0,0.1-0.1,0.2c0,0-0.1,0.1-0.2,0.1c-0.1,0-0.2,0.1-0.3,0.1c-0.1,0-0.3,0-0.5,0
				c-0.2,0-0.4,0-0.5,0c-0.1,0-0.3,0-0.3-0.1c-0.1,0-0.1-0.1-0.2-0.1c0,0,0-0.1,0-0.2V41.5c0-0.1,0-0.1,0-0.2c0-0.1,0.1-0.1,0.2-0.1
				c0.1,0,0.2-0.1,0.3-0.1c0.1,0,0.3,0,0.5,0c0.2,0,0.4,0,0.5,0c0.1,0,0.3,0,0.3,0.1c0.1,0,0.1,0.1,0.2,0.1c0,0.1,0.1,0.1,0.1,0.2
				V59.1z"/>
			<path class="st3" d="M195.3,59.1c0,0.1,0,0.1-0.1,0.2c0,0-0.1,0.1-0.2,0.1c-0.1,0-0.2,0.1-0.3,0.1c-0.1,0-0.3,0-0.5,0
				c-0.2,0-0.4,0-0.5,0c-0.1,0-0.3,0-0.3-0.1c-0.1,0-0.1-0.1-0.2-0.1c0,0,0-0.1,0-0.2V41.5c0-0.1,0-0.1,0-0.2c0-0.1,0.1-0.1,0.2-0.1
				c0.1,0,0.2-0.1,0.3-0.1c0.1,0,0.3,0,0.5,0c0.2,0,0.4,0,0.5,0c0.1,0,0.3,0,0.3,0.1c0.1,0,0.1,0.1,0.2,0.1c0,0.1,0.1,0.1,0.1,0.2
				V59.1z"/>
			<path class="st3" d="M214.5,58.4c0,0.2,0,0.3,0,0.4c0,0.1,0,0.2-0.1,0.3c0,0.1-0.1,0.1-0.1,0.2c-0.1,0-0.1,0.1-0.2,0.1h-7.5
				c-0.2,0-0.4-0.1-0.6-0.2c-0.2-0.1-0.3-0.4-0.3-0.7V42.7c0-0.1,0-0.1,0.1-0.2c0-0.1,0.1-0.1,0.2-0.1c0.1,0,0.2-0.1,0.4-0.1
				c0.1,0,0.3,0,0.5,0c0.2,0,0.4,0,0.5,0c0.1,0,0.3,0,0.3,0.1c0.1,0,0.2,0.1,0.2,0.1c0,0.1,0.1,0.1,0.1,0.2v14.8h6.1
				c0.1,0,0.1,0,0.2,0.1c0.1,0,0.1,0.1,0.1,0.2c0,0.1,0.1,0.2,0.1,0.3C214.5,58.1,214.5,58.2,214.5,58.4z"/>
			<path class="st3" d="M219.8,43.2c0,0.5-0.1,0.9-0.3,1c-0.2,0.2-0.5,0.3-1.1,0.3c-0.5,0-0.9-0.1-1-0.3c-0.2-0.2-0.3-0.5-0.3-1
				c0-0.5,0.1-0.9,0.3-1c0.2-0.2,0.5-0.3,1.1-0.3c0.5,0,0.9,0.1,1,0.3C219.7,42.4,219.8,42.7,219.8,43.2z M219.5,59.1
				c0,0.1,0,0.1-0.1,0.2c0,0-0.1,0.1-0.2,0.1c-0.1,0-0.2,0.1-0.3,0.1c-0.1,0-0.3,0-0.5,0c-0.2,0-0.4,0-0.5,0c-0.1,0-0.3,0-0.3-0.1
				c-0.1,0-0.1-0.1-0.2-0.1c0,0,0-0.1,0-0.2V47.2c0-0.1,0-0.1,0-0.2c0-0.1,0.1-0.1,0.2-0.1c0.1,0,0.2-0.1,0.3-0.1c0.1,0,0.3,0,0.5,0
				c0.2,0,0.4,0,0.5,0c0.1,0,0.3,0,0.3,0.1c0.1,0,0.1,0.1,0.2,0.1c0,0.1,0.1,0.1,0.1,0.2V59.1z"/>
			<path class="st3" d="M233.2,59.1c0,0.1,0,0.1-0.1,0.2c0,0-0.1,0.1-0.2,0.1c-0.1,0-0.2,0.1-0.3,0.1c-0.1,0-0.3,0-0.5,0
				c-0.2,0-0.4,0-0.5,0c-0.1,0-0.3,0-0.3-0.1c-0.1,0-0.1-0.1-0.2-0.1c0,0-0.1-0.1-0.1-0.2v-6.9c0-0.7-0.1-1.2-0.2-1.6
				c-0.1-0.4-0.3-0.8-0.5-1.1c-0.2-0.3-0.5-0.5-0.8-0.7c-0.3-0.2-0.7-0.2-1.1-0.2c-0.5,0-1.1,0.2-1.6,0.6c-0.5,0.4-1.1,1-1.7,1.7
				v8.3c0,0.1,0,0.1-0.1,0.2c0,0-0.1,0.1-0.2,0.1c-0.1,0-0.2,0.1-0.3,0.1c-0.1,0-0.3,0-0.5,0c-0.2,0-0.4,0-0.5,0
				c-0.1,0-0.3,0-0.3-0.1c-0.1,0-0.1-0.1-0.2-0.1c0,0,0-0.1,0-0.2V47.2c0-0.1,0-0.1,0-0.2c0,0,0.1-0.1,0.2-0.1
				c0.1,0,0.2-0.1,0.3-0.1c0.1,0,0.3,0,0.5,0c0.2,0,0.4,0,0.5,0c0.1,0,0.2,0,0.3,0.1c0.1,0,0.1,0.1,0.2,0.1c0,0,0,0.1,0,0.2v1.6
				c0.7-0.7,1.3-1.3,2-1.6c0.7-0.3,1.3-0.5,2-0.5c0.8,0,1.5,0.1,2,0.4c0.5,0.3,1,0.6,1.3,1.1c0.3,0.4,0.6,1,0.7,1.6
				c0.1,0.6,0.2,1.3,0.2,2.2V59.1z"/>
			<path class="st3" d="M245.8,59.1c0,0.1,0,0.1-0.1,0.2c0,0.1-0.1,0.1-0.2,0.1c-0.1,0-0.2,0.1-0.3,0.1c-0.1,0-0.3,0-0.6,0
				c-0.2,0-0.4,0-0.6,0c-0.2,0-0.3,0-0.4-0.1c-0.1,0-0.2-0.1-0.3-0.1c-0.1-0.1-0.1-0.1-0.2-0.2l-5-6.6v6.6c0,0.1,0,0.1-0.1,0.2
				c0,0-0.1,0.1-0.2,0.1c-0.1,0-0.2,0.1-0.3,0.1c-0.1,0-0.3,0-0.5,0c-0.2,0-0.4,0-0.5,0c-0.1,0-0.3,0-0.3-0.1
				c-0.1,0-0.1-0.1-0.2-0.1c0,0,0-0.1,0-0.2V41.5c0-0.1,0-0.1,0-0.2c0-0.1,0.1-0.1,0.2-0.1c0.1,0,0.2-0.1,0.3-0.1c0.1,0,0.3,0,0.5,0
				c0.2,0,0.4,0,0.5,0c0.1,0,0.3,0,0.3,0.1c0.1,0,0.1,0.1,0.2,0.1c0,0.1,0.1,0.1,0.1,0.2v10.7l4.5-4.9c0.1-0.1,0.1-0.2,0.2-0.2
				c0.1-0.1,0.2-0.1,0.3-0.1c0.1,0,0.2-0.1,0.4-0.1c0.1,0,0.3,0,0.5,0c0.2,0,0.4,0,0.6,0c0.1,0,0.3,0,0.4,0.1c0.1,0,0.2,0.1,0.2,0.1
				c0,0,0.1,0.1,0.1,0.2c0,0.1,0,0.2-0.1,0.3c-0.1,0.1-0.2,0.2-0.3,0.4l-4.3,4.3l4.8,6.3c0.1,0.2,0.2,0.3,0.2,0.4
				C245.8,58.9,245.8,59,245.8,59.1z"/>
			<path class="st3" d="M263.9,54.6c0,0.8-0.1,1.5-0.4,2.1c-0.3,0.6-0.7,1.2-1.2,1.6c-0.5,0.4-1.1,0.8-1.8,1
				c-0.7,0.2-1.5,0.3-2.3,0.3c-0.6,0-1.1,0-1.6-0.1c-0.5-0.1-0.9-0.2-1.3-0.4c-0.4-0.1-0.7-0.3-1-0.4c-0.3-0.1-0.4-0.3-0.5-0.4
				c-0.1-0.1-0.2-0.2-0.2-0.4c0-0.2-0.1-0.4-0.1-0.7c0-0.2,0-0.4,0-0.5c0-0.1,0-0.2,0.1-0.3c0-0.1,0.1-0.1,0.1-0.2
				c0.1,0,0.1,0,0.2,0c0.1,0,0.3,0.1,0.5,0.2c0.2,0.1,0.5,0.3,0.9,0.5c0.4,0.2,0.8,0.3,1.3,0.5c0.5,0.2,1.1,0.2,1.7,0.2
				c0.5,0,0.9-0.1,1.4-0.2c0.4-0.1,0.8-0.3,1.1-0.6c0.3-0.2,0.5-0.5,0.7-0.9c0.2-0.4,0.2-0.8,0.2-1.2c0-0.5-0.1-0.9-0.3-1.2
				c-0.2-0.3-0.5-0.6-0.9-0.9c-0.4-0.3-0.8-0.5-1.2-0.7c-0.5-0.2-0.9-0.4-1.4-0.7c-0.5-0.2-1-0.5-1.4-0.7c-0.5-0.3-0.9-0.6-1.2-1
				c-0.4-0.4-0.7-0.8-0.9-1.3c-0.2-0.5-0.3-1.1-0.3-1.8c0-0.7,0.1-1.3,0.4-1.9c0.3-0.6,0.6-1,1.1-1.4c0.5-0.4,1-0.7,1.6-0.9
				c0.6-0.2,1.3-0.3,2.1-0.3c0.4,0,0.8,0,1.1,0.1c0.4,0.1,0.7,0.2,1.1,0.3c0.3,0.1,0.6,0.2,0.9,0.4c0.3,0.1,0.4,0.2,0.5,0.3
				c0.1,0.1,0.1,0.1,0.2,0.2c0,0,0,0.1,0.1,0.2c0,0.1,0,0.2,0,0.3c0,0.1,0,0.2,0,0.4c0,0.2,0,0.3,0,0.4c0,0.1,0,0.2-0.1,0.3
				c0,0.1-0.1,0.1-0.1,0.2c0,0-0.1,0.1-0.2,0.1c-0.1,0-0.2-0.1-0.5-0.2c-0.2-0.1-0.5-0.3-0.8-0.4c-0.3-0.2-0.7-0.3-1.1-0.4
				c-0.4-0.1-0.9-0.2-1.4-0.2c-0.5,0-0.9,0.1-1.2,0.2c-0.4,0.1-0.6,0.3-0.9,0.5c-0.2,0.2-0.4,0.5-0.5,0.8c-0.1,0.3-0.2,0.6-0.2,0.9
				c0,0.5,0.1,0.9,0.3,1.2c0.2,0.3,0.5,0.6,0.9,0.9c0.4,0.3,0.8,0.5,1.2,0.7c0.5,0.2,0.9,0.4,1.4,0.7c0.5,0.2,1,0.5,1.4,0.7
				c0.5,0.3,0.9,0.6,1.2,0.9c0.4,0.4,0.7,0.8,0.9,1.3C263.8,53.4,263.9,53.9,263.9,54.6z"/>
			<path class="st3" d="M277,52.6c0,0.3-0.1,0.6-0.3,0.7c-0.2,0.1-0.4,0.2-0.6,0.2h-7.8c0,0.7,0.1,1.3,0.2,1.8
				c0.1,0.5,0.4,1,0.7,1.4c0.3,0.4,0.7,0.7,1.2,0.9c0.5,0.2,1.1,0.3,1.8,0.3c0.6,0,1.1,0,1.5-0.1c0.4-0.1,0.8-0.2,1.1-0.3
				c0.3-0.1,0.6-0.2,0.8-0.3c0.2-0.1,0.4-0.1,0.5-0.1c0.1,0,0.1,0,0.2,0c0,0,0.1,0.1,0.1,0.1c0,0.1,0,0.1,0.1,0.3c0,0.1,0,0.2,0,0.4
				c0,0.1,0,0.2,0,0.3c0,0.1,0,0.2,0,0.2c0,0.1,0,0.1-0.1,0.2c0,0.1-0.1,0.1-0.1,0.2c0,0-0.2,0.1-0.4,0.2c-0.2,0.1-0.5,0.2-0.9,0.3
				c-0.4,0.1-0.8,0.2-1.3,0.3c-0.5,0.1-1,0.1-1.6,0.1c-1,0-1.8-0.1-2.6-0.4c-0.7-0.3-1.4-0.7-1.9-1.2c-0.5-0.5-0.9-1.2-1.1-2
				c-0.3-0.8-0.4-1.7-0.4-2.8c0-1,0.1-1.9,0.4-2.7s0.6-1.5,1.1-2.1c0.5-0.6,1.1-1,1.8-1.3c0.7-0.3,1.5-0.5,2.4-0.5
				c0.9,0,1.7,0.1,2.4,0.4c0.7,0.3,1.2,0.7,1.6,1.2c0.4,0.5,0.7,1.1,0.9,1.8c0.2,0.7,0.3,1.4,0.3,2.2V52.6z M274.8,52
				c0-1.1-0.2-2-0.8-2.7c-0.5-0.7-1.3-1-2.4-1c-0.5,0-1,0.1-1.4,0.3c-0.4,0.2-0.7,0.5-1,0.8c-0.3,0.3-0.5,0.7-0.6,1.2
				c-0.2,0.4-0.2,0.9-0.3,1.4H274.8z"/>
			<path class="st3" d="M288.9,57.3c0,0.1,0,0.3,0,0.4c0,0.1,0,0.2,0,0.3c0,0.1,0,0.1-0.1,0.2c0,0.1-0.1,0.1-0.2,0.3
				c-0.1,0.1-0.3,0.2-0.6,0.4c-0.3,0.2-0.6,0.3-0.9,0.4c-0.3,0.1-0.7,0.2-1.1,0.3c-0.4,0.1-0.8,0.1-1.2,0.1c-0.9,0-1.6-0.1-2.3-0.4
				c-0.7-0.3-1.2-0.7-1.7-1.2c-0.4-0.5-0.8-1.2-1-2c-0.2-0.8-0.3-1.7-0.3-2.7c0-1.2,0.1-2.2,0.4-3c0.3-0.8,0.7-1.5,1.2-2.1
				c0.5-0.5,1.1-0.9,1.8-1.2c0.7-0.3,1.4-0.4,2.2-0.4c0.4,0,0.7,0,1.1,0.1c0.4,0.1,0.7,0.2,1,0.3c0.3,0.1,0.6,0.2,0.8,0.4
				c0.2,0.1,0.4,0.3,0.5,0.4c0.1,0.1,0.2,0.2,0.2,0.3c0,0.1,0.1,0.1,0.1,0.2c0,0.1,0,0.2,0.1,0.3c0,0.1,0,0.2,0,0.4
				c0,0.3,0,0.6-0.1,0.7c-0.1,0.1-0.2,0.2-0.3,0.2c-0.1,0-0.3-0.1-0.5-0.2c-0.2-0.1-0.4-0.3-0.7-0.5c-0.3-0.2-0.6-0.3-1-0.5
				c-0.4-0.1-0.8-0.2-1.3-0.2c-1,0-1.8,0.4-2.4,1.2c-0.6,0.8-0.8,2-0.8,3.5c0,0.8,0.1,1.4,0.2,2c0.1,0.6,0.4,1.1,0.6,1.4
				c0.3,0.4,0.6,0.7,1,0.9c0.4,0.2,0.9,0.3,1.4,0.3c0.5,0,0.9-0.1,1.3-0.2c0.4-0.2,0.7-0.3,1-0.5c0.3-0.2,0.5-0.4,0.7-0.5
				c0.2-0.2,0.3-0.2,0.4-0.2c0.1,0,0.1,0,0.2,0.1c0,0,0.1,0.1,0.1,0.2c0,0.1,0.1,0.2,0.1,0.3C288.8,56.9,288.9,57.1,288.9,57.3z"/>
			<path class="st3" d="M301.9,59.1c0,0.1,0,0.1,0,0.2c0,0-0.1,0.1-0.2,0.1c-0.1,0-0.2,0.1-0.3,0.1c-0.1,0-0.3,0-0.5,0
				c-0.2,0-0.4,0-0.5,0c-0.1,0-0.2,0-0.3-0.1c-0.1,0-0.1-0.1-0.2-0.1c0,0,0-0.1,0-0.2v-1.6c-0.7,0.7-1.3,1.3-2,1.6
				c-0.7,0.3-1.3,0.5-2,0.5c-0.8,0-1.5-0.1-2-0.4c-0.5-0.3-1-0.6-1.3-1.1c-0.3-0.5-0.6-1-0.7-1.6c-0.1-0.6-0.2-1.3-0.2-2.2v-7.2
				c0-0.1,0-0.1,0-0.2c0,0,0.1-0.1,0.2-0.1c0.1,0,0.2-0.1,0.3-0.1c0.1,0,0.3,0,0.5,0s0.4,0,0.5,0c0.1,0,0.3,0,0.3,0.1
				c0.1,0,0.1,0.1,0.2,0.1c0,0,0.1,0.1,0.1,0.2v6.9c0,0.7,0,1.3,0.2,1.7c0.1,0.4,0.3,0.8,0.5,1.1c0.2,0.3,0.5,0.5,0.8,0.7
				c0.3,0.2,0.7,0.2,1.1,0.2c0.5,0,1.1-0.2,1.6-0.6c0.5-0.4,1.1-1,1.7-1.7v-8.3c0-0.1,0-0.1,0-0.2c0,0,0.1-0.1,0.2-0.1
				c0.1,0,0.2-0.1,0.3-0.1c0.1,0,0.3,0,0.5,0c0.2,0,0.4,0,0.5,0c0.1,0,0.3,0,0.3,0.1c0.1,0,0.1,0.1,0.2,0.1c0,0,0.1,0.1,0.1,0.2
				V59.1z"/>
			<path class="st3" d="M312.9,48c0,0.2,0,0.4,0,0.5c0,0.1,0,0.2-0.1,0.3c0,0.1-0.1,0.1-0.1,0.2c0,0-0.1,0.1-0.2,0.1
				c-0.1,0-0.2,0-0.3-0.1c-0.1,0-0.2-0.1-0.3-0.1c-0.1,0-0.3-0.1-0.4-0.1c-0.2,0-0.3-0.1-0.5-0.1c-0.2,0-0.4,0-0.6,0.1
				c-0.2,0.1-0.4,0.2-0.7,0.4c-0.2,0.2-0.5,0.5-0.7,0.8c-0.3,0.3-0.5,0.7-0.8,1.2v7.8c0,0.1,0,0.1-0.1,0.2c0,0-0.1,0.1-0.2,0.1
				c-0.1,0-0.2,0.1-0.3,0.1c-0.1,0-0.3,0-0.5,0c-0.2,0-0.4,0-0.5,0c-0.1,0-0.3,0-0.3-0.1c-0.1,0-0.1-0.1-0.2-0.1c0,0,0-0.1,0-0.2
				V47.2c0-0.1,0-0.1,0-0.2c0,0,0.1-0.1,0.2-0.1c0.1,0,0.2-0.1,0.3-0.1c0.1,0,0.3,0,0.5,0c0.2,0,0.4,0,0.5,0c0.1,0,0.2,0,0.3,0.1
				c0.1,0,0.1,0.1,0.2,0.1c0,0,0,0.1,0,0.2v1.7c0.3-0.5,0.6-0.9,0.9-1.2c0.3-0.3,0.6-0.5,0.8-0.7c0.3-0.2,0.5-0.3,0.8-0.4
				c0.3-0.1,0.5-0.1,0.8-0.1c0.1,0,0.2,0,0.4,0c0.1,0,0.3,0,0.5,0.1c0.2,0,0.3,0.1,0.4,0.1c0.1,0,0.2,0.1,0.3,0.1
				c0.1,0,0.1,0.1,0.1,0.1c0,0,0,0.1,0,0.2c0,0.1,0,0.2,0,0.3C312.9,47.6,312.9,47.8,312.9,48z"/>
			<path class="st3" d="M317.8,43.2c0,0.5-0.1,0.9-0.3,1c-0.2,0.2-0.5,0.3-1.1,0.3c-0.5,0-0.9-0.1-1-0.3c-0.2-0.2-0.3-0.5-0.3-1
				c0-0.5,0.1-0.9,0.3-1c0.2-0.2,0.5-0.3,1.1-0.3c0.5,0,0.9,0.1,1,0.3C317.7,42.4,317.8,42.7,317.8,43.2z M317.5,59.1
				c0,0.1,0,0.1-0.1,0.2c0,0-0.1,0.1-0.2,0.1c-0.1,0-0.2,0.1-0.3,0.1c-0.1,0-0.3,0-0.5,0c-0.2,0-0.4,0-0.5,0c-0.1,0-0.3,0-0.3-0.1
				c-0.1,0-0.1-0.1-0.2-0.1c0,0,0-0.1,0-0.2V47.2c0-0.1,0-0.1,0-0.2c0-0.1,0.1-0.1,0.2-0.1c0.1,0,0.2-0.1,0.3-0.1c0.1,0,0.3,0,0.5,0
				c0.2,0,0.4,0,0.5,0c0.1,0,0.3,0,0.3,0.1c0.1,0,0.1,0.1,0.2,0.1c0,0.1,0.1,0.1,0.1,0.2V59.1z"/>
			<path class="st3" d="M327.7,58.2c0,0.3,0,0.5-0.1,0.6c0,0.2-0.1,0.3-0.2,0.3c-0.1,0.1-0.2,0.1-0.3,0.2c-0.1,0.1-0.3,0.1-0.5,0.2
				c-0.2,0-0.4,0.1-0.6,0.1c-0.2,0-0.4,0-0.6,0c-0.6,0-1.1-0.1-1.6-0.2c-0.4-0.2-0.8-0.4-1.1-0.7c-0.3-0.3-0.5-0.7-0.6-1.3
				c-0.1-0.5-0.2-1.1-0.2-1.8v-6.9h-1.7c-0.1,0-0.2-0.1-0.3-0.2c-0.1-0.1-0.1-0.4-0.1-0.7c0-0.2,0-0.3,0-0.4c0-0.1,0.1-0.2,0.1-0.3
				c0-0.1,0.1-0.1,0.1-0.2c0.1,0,0.1,0,0.2,0h1.6v-2.8c0-0.1,0-0.1,0-0.2c0-0.1,0.1-0.1,0.2-0.1c0.1,0,0.2-0.1,0.3-0.1
				c0.1,0,0.3,0,0.5,0c0.2,0,0.4,0,0.5,0c0.1,0,0.3,0,0.3,0.1c0.1,0,0.1,0.1,0.2,0.1c0,0.1,0.1,0.1,0.1,0.2v2.8h3c0.1,0,0.1,0,0.2,0
				c0.1,0,0.1,0.1,0.1,0.2c0,0.1,0.1,0.2,0.1,0.3c0,0.1,0,0.3,0,0.4c0,0.3,0,0.5-0.1,0.7c-0.1,0.1-0.2,0.2-0.3,0.2h-3v6.6
				c0,0.8,0.1,1.4,0.4,1.9c0.2,0.4,0.7,0.6,1.3,0.6c0.2,0,0.4,0,0.5-0.1c0.2,0,0.3-0.1,0.4-0.1c0.1,0,0.2-0.1,0.3-0.1
				c0.1,0,0.2-0.1,0.2-0.1c0,0,0.1,0,0.1,0c0,0,0.1,0.1,0.1,0.1c0,0.1,0,0.1,0.1,0.3C327.7,57.9,327.7,58.1,327.7,58.2z"/>
			<path class="st3" d="M332.4,43.2c0,0.5-0.1,0.9-0.3,1c-0.2,0.2-0.5,0.3-1.1,0.3c-0.5,0-0.9-0.1-1-0.3c-0.2-0.2-0.3-0.5-0.3-1
				c0-0.5,0.1-0.9,0.3-1c0.2-0.2,0.5-0.3,1.1-0.3c0.5,0,0.9,0.1,1,0.3C332.3,42.4,332.4,42.7,332.4,43.2z M332.1,59.1
				c0,0.1,0,0.1-0.1,0.2c0,0-0.1,0.1-0.2,0.1c-0.1,0-0.2,0.1-0.3,0.1c-0.1,0-0.3,0-0.5,0c-0.2,0-0.4,0-0.5,0c-0.1,0-0.3,0-0.3-0.1
				c-0.1,0-0.1-0.1-0.2-0.1c0,0,0-0.1,0-0.2V47.2c0-0.1,0-0.1,0-0.2c0-0.1,0.1-0.1,0.2-0.1c0.1,0,0.2-0.1,0.3-0.1c0.1,0,0.3,0,0.5,0
				c0.2,0,0.4,0,0.5,0c0.1,0,0.3,0,0.3,0.1c0.1,0,0.1,0.1,0.2,0.1c0,0.1,0.1,0.1,0.1,0.2V59.1z"/>
			<path class="st3" d="M346.3,52.6c0,0.3-0.1,0.6-0.3,0.7c-0.2,0.1-0.4,0.2-0.6,0.2h-7.8c0,0.7,0.1,1.3,0.2,1.8
				c0.1,0.5,0.4,1,0.7,1.4c0.3,0.4,0.7,0.7,1.2,0.9c0.5,0.2,1.1,0.3,1.8,0.3c0.6,0,1.1,0,1.5-0.1c0.4-0.1,0.8-0.2,1.1-0.3
				c0.3-0.1,0.6-0.2,0.8-0.3c0.2-0.1,0.4-0.1,0.5-0.1c0.1,0,0.1,0,0.2,0c0,0,0.1,0.1,0.1,0.1c0,0.1,0,0.1,0.1,0.3c0,0.1,0,0.2,0,0.4
				c0,0.1,0,0.2,0,0.3c0,0.1,0,0.2,0,0.2c0,0.1,0,0.1-0.1,0.2c0,0.1-0.1,0.1-0.1,0.2c0,0-0.2,0.1-0.4,0.2c-0.2,0.1-0.5,0.2-0.9,0.3
				c-0.4,0.1-0.8,0.2-1.3,0.3c-0.5,0.1-1,0.1-1.6,0.1c-1,0-1.8-0.1-2.6-0.4c-0.7-0.3-1.4-0.7-1.9-1.2c-0.5-0.5-0.9-1.2-1.1-2
				c-0.3-0.8-0.4-1.7-0.4-2.8c0-1,0.1-1.9,0.4-2.7c0.3-0.8,0.6-1.5,1.1-2.1c0.5-0.6,1.1-1,1.8-1.3c0.7-0.3,1.5-0.5,2.4-0.5
				c0.9,0,1.7,0.1,2.4,0.4c0.7,0.3,1.2,0.7,1.6,1.2c0.4,0.5,0.7,1.1,0.9,1.8c0.2,0.7,0.3,1.4,0.3,2.2V52.6z M344.1,52
				c0-1.1-0.2-2-0.8-2.7c-0.5-0.7-1.3-1-2.4-1c-0.5,0-1,0.1-1.4,0.3c-0.4,0.2-0.7,0.5-1,0.8c-0.3,0.3-0.5,0.7-0.6,1.2
				c-0.2,0.4-0.2,0.9-0.3,1.4H344.1z"/>
			<path class="st3" d="M357,55.9c0,0.6-0.1,1.1-0.3,1.6c-0.2,0.5-0.5,0.9-1,1.2c-0.4,0.3-0.9,0.6-1.5,0.7c-0.6,0.2-1.2,0.3-1.9,0.3
				c-0.4,0-0.8,0-1.2-0.1c-0.4-0.1-0.7-0.1-1-0.3c-0.3-0.1-0.6-0.2-0.8-0.3c-0.2-0.1-0.4-0.2-0.5-0.3c-0.1-0.1-0.2-0.2-0.2-0.4
				c0-0.2-0.1-0.4-0.1-0.6c0-0.2,0-0.3,0-0.4c0-0.1,0-0.2,0.1-0.3c0-0.1,0.1-0.1,0.1-0.2c0,0,0.1,0,0.2,0c0.1,0,0.2,0.1,0.4,0.2
				c0.2,0.1,0.4,0.2,0.7,0.4c0.3,0.1,0.6,0.3,1,0.4c0.4,0.1,0.8,0.2,1.3,0.2c0.4,0,0.7,0,1-0.1c0.3-0.1,0.6-0.2,0.8-0.3
				c0.2-0.2,0.4-0.3,0.5-0.6c0.1-0.2,0.2-0.5,0.2-0.8c0-0.3-0.1-0.6-0.3-0.8c-0.2-0.2-0.4-0.4-0.7-0.6c-0.3-0.2-0.6-0.3-0.9-0.5
				c-0.4-0.1-0.7-0.3-1.1-0.4c-0.4-0.1-0.7-0.3-1.1-0.5c-0.4-0.2-0.7-0.4-1-0.7c-0.3-0.3-0.5-0.6-0.7-1c-0.2-0.4-0.3-0.8-0.3-1.4
				c0-0.5,0.1-0.9,0.3-1.3c0.2-0.4,0.5-0.8,0.8-1.1c0.4-0.3,0.8-0.6,1.4-0.8c0.5-0.2,1.2-0.3,1.9-0.3c0.3,0,0.6,0,0.9,0.1
				c0.3,0.1,0.6,0.1,0.9,0.2c0.3,0.1,0.5,0.2,0.7,0.3c0.2,0.1,0.3,0.2,0.4,0.2c0.1,0.1,0.2,0.1,0.2,0.2c0,0.1,0.1,0.1,0.1,0.2
				c0,0.1,0,0.1,0,0.2c0,0.1,0,0.2,0,0.4c0,0.1,0,0.3,0,0.4c0,0.1,0,0.2-0.1,0.3c0,0.1-0.1,0.1-0.1,0.2c0,0-0.1,0-0.1,0
				c-0.1,0-0.2,0-0.3-0.1c-0.2-0.1-0.3-0.2-0.6-0.3c-0.2-0.1-0.5-0.2-0.8-0.3c-0.3-0.1-0.7-0.1-1.1-0.1c-0.4,0-0.7,0-1,0.1
				c-0.3,0.1-0.5,0.2-0.7,0.4c-0.2,0.2-0.3,0.3-0.4,0.5c-0.1,0.2-0.1,0.4-0.1,0.7c0,0.3,0.1,0.6,0.3,0.9c0.2,0.2,0.4,0.4,0.7,0.6
				c0.3,0.2,0.6,0.3,1,0.5c0.4,0.1,0.7,0.3,1.1,0.4c0.4,0.1,0.7,0.3,1.1,0.5c0.4,0.2,0.7,0.4,1,0.7c0.3,0.3,0.5,0.6,0.7,0.9
				C356.9,54.9,357,55.3,357,55.9z"/>
		</g>
		<g>
			<path class="st3" d="M149.6,31.5v-1.8H162c2.1-4.2,3.2-8.8,4.2-13.4h2.4c-1,4.6-2.1,9.2-4,13.4h7.6v1.8H149.6z M150.7,14.2v-1.8
				h9.2c-0.5-1.2-1.1-2.4-1.5-3.6h2.6c0.4,1.1,1.1,2.7,1.7,3.6h8.2v1.8H150.7z M156.1,27.9c-1.1-3.8-2.2-7.7-2.8-11.6h2.4
				c0.7,4,1.6,7.9,3.1,11.6H156.1z"/>
			<path class="st3" d="M213,29.1h-2c0.6-3.7,0.8-9.5,0.7-13.2h1.9C213.6,19.5,213.6,25.7,213,29.1z M216.4,14.7v16.8h-2.2V14.7
				h-3.1V13h3.1V8.8h2.2V13h2.6v1.7H216.4z M217.7,29.1c-0.3-3.6-0.7-9.2-0.5-13.2h1.9c-0.2,4,0.1,9.9,0.6,13.2H217.7z M231.6,17.4
				v0.7c0,0.5-0.1,0.9-0.4,1.1c-0.2,0.3-0.6,0.5-1.1,0.5h-7.4c-0.4,0-0.7-0.2-0.9-0.4c-0.3-0.3-0.4-0.7-0.4-1v-0.9h-2.1
				c1-0.8,2.7-2.5,3.5-3.5h-3.2v-1.6h4.3c0.2-0.3,0.4-0.6,0.5-0.9c-1,0.1-2.9,0.1-4.2,0.1V9.7c3.4,0.1,9.2-0.3,12.3-0.8v1.8
				c-1.4,0.1-4.3,0.4-5.7,0.5c-0.1,0.4-0.3,0.8-0.4,1.1h7.2v1.6h-3.5c0.8,1.1,2.6,2.7,3.9,3.5H231.6z M232.7,31
				c-0.4,0.4-0.8,0.6-1.4,0.6h-2l-0.7-1.8h1.8c0.3,0,0.5-0.2,0.5-0.6V23c0-0.3-0.3-0.5-0.5-0.5h-7.6c-0.2,0-0.5,0.2-0.5,0.4v8.6
				h-2.2V23c0-0.7,0.2-1.2,0.6-1.6c0.4-0.4,0.9-0.6,1.5-0.6h8.8c0.6,0,1.2,0.2,1.5,0.5c0.4,0.4,0.6,1,0.6,1.7v6.4
				C233.2,30.1,233,30.6,232.7,31z M229.5,28.5c-0.3,0.4-0.9,0.5-1.2,0.5H225c-0.4,0-0.8-0.2-1.1-0.5c-0.3-0.3-0.5-0.8-0.5-1.2v-1.8
				c0-0.5,0.2-0.9,0.5-1.2c0.3-0.4,0.8-0.5,1.2-0.5h3.1c0.4,0,0.9,0.2,1.2,0.5c0.3,0.3,0.5,0.7,0.5,1.1v2
				C230,27.8,229.8,28.2,229.5,28.5z M229.3,17.1c0-0.2-0.2-0.4-0.4-0.4h-4.8c-0.2,0-0.4,0.2-0.4,0.4v0.7c0,0.2,0.2,0.4,0.4,0.4h4.8
				c0.3,0,0.4-0.2,0.4-0.5V17.1z M227.4,13.9h-2c-0.2,0.4-0.6,1-0.9,1.3h4C228.2,14.9,227.7,14.3,227.4,13.9z M227.9,25.8
				c0-0.3-0.3-0.5-0.5-0.5H226c-0.3,0-0.5,0.3-0.5,0.5l0,1.2c0,0.2,0.2,0.4,0.4,0.4h1.5c0.2,0,0.4-0.2,0.4-0.5V25.8z"/>
			<path class="st3" d="M272.7,13.2v-1.8h2.8c-0.2-0.6-0.6-1.9-0.8-2.6h2.3c0.2,0.8,0.6,2.1,0.8,2.6h2.4v1.8H272.7z M279.2,30.9
				c-0.3,0.3-0.8,0.5-1.3,0.5h-3c-0.4,0-0.9-0.2-1.2-0.5c-0.4-0.3-0.6-0.8-0.6-1.4v-4.7c0-0.5,0.2-1,0.6-1.3
				c0.3-0.3,0.8-0.5,1.2-0.5h3.2c0.4,0,0.8,0.2,1,0.5c0.4,0.4,0.6,0.9,0.6,1.3v4.8C279.8,30.1,279.5,30.6,279.2,30.9z M292.5,19.5
				c-0.7-0.8-1.8-2.4-2.4-3.3v1.6h-5.5v-1.3c-0.7,1-1.6,2.3-2.3,3h-2.8V21h-6.2v-1.8h6.2c1-0.9,2.3-2.4,3-3.5
				c-0.7-0.8-1.6-2.4-2.1-3.6h2.1c0.2,0.6,0.8,1.5,1.1,1.9c0.4-0.7,0.9-1.7,1.1-2.5c0.1-0.2-0.1-0.4-0.3-0.4H281V9.3h4.3
				c0.6,0,1.1,0.3,1.4,0.7c0.3,0.4,0.4,1,0.2,1.7c-0.4,1.2-1.2,3.1-2.1,4.3h5.2c-1-1.9-2.2-4.9-2.9-7.2h2.2c0.2,0.6,0.5,1.6,0.7,2
				c0.4-0.4,0.9-1,1.1-1.5h2.7c-0.7,1-2.1,2.6-3,3.5c0.1,0.3,0.4,0.8,0.6,1.1c0.3-0.4,0.9-1.1,1.2-1.6h2.8c-0.7,1-2.2,2.6-3,3.4
				c0.8,1.1,2.2,2.9,3,3.8H292.5z M273.3,17v-1.8h6.2V17H273.3z M277.6,25.3c0-0.3-0.2-0.5-0.5-0.5h-1.2c-0.3,0-0.5,0.3-0.5,0.5v3.8
				c0,0.2,0.2,0.5,0.4,0.5h1.3c0.3,0,0.5-0.3,0.5-0.5V25.3z M280.3,31.4v-1.7h7.4c0.6-1.2,1-2.4,1.4-3.7h2.4
				c-0.4,1.3-0.9,2.5-1.5,3.7h5.1v1.7H280.3z M292.5,24.8c-0.4,0.4-0.9,0.6-1.5,0.6h-7.4c-0.4,0-0.9-0.2-1.2-0.6
				c-0.3-0.3-0.5-0.7-0.5-1.2V21c0-0.4,0.2-0.9,0.6-1.2c0.3-0.3,0.8-0.5,1.2-0.5h7.4c0.5,0,0.9,0.2,1.3,0.6c0.3,0.4,0.6,0.8,0.6,1.3
				v2.2C293,24,292.9,24.5,292.5,24.8z M284.3,29c-0.5-0.9-1-2-1.4-3h2.4c0.4,1.1,0.9,2.1,1.5,3H284.3z M290.8,21.7
				c0-0.3-0.3-0.7-0.6-0.7h-5.6c-0.3,0-0.5,0.2-0.5,0.5v1.6c0,0.3,0.2,0.5,0.5,0.5h5.6c0.3,0,0.6-0.3,0.6-0.6V21.7z"/>
			<path class="st3" d="M353.8,25.2c-0.3-0.2-0.7-0.5-0.9-0.7V29c0,0.7-0.3,1.3-0.7,1.8c-0.5,0.5-1.1,0.7-2,0.7h-3.7l-0.8-1.8h4.2
				c0.3,0,0.7-0.3,0.7-0.7v-4.9c0-0.3-0.2-0.6-0.5-0.6h-3.6c-1.1,3.2-3.9,6-6.8,7.9h-4.4c3.4-1.7,7.3-4.1,8.7-7.9h-4.2
				c-0.5,0.5-1.4,1.2-1.8,1.6h-3.7c2.3-1.6,4.8-3.7,6.5-6h-6.1v-1.7h7.3c0.3-0.7,0.8-1.6,1-2.1h-7.4v-1.7h8.1c0.6-1.5,1-3.2,1.2-4.8
				h2.5c-0.3,1.6-0.8,3.5-1.2,4.8h9.7v1.7h-10.3c-0.3,0.6-0.8,1.7-1,2.1h12.2v1.7H351c1.7,2.2,4.2,4.4,6.4,5.9H353.8z M339.6,12.9
				c-0.8-1.1-1.5-2.2-2-3.4h2.7c0.6,1.2,1.3,2.4,2.2,3.4H339.6z M348.2,19.2h-4.6c-0.6,0.9-1.4,1.9-2,2.7h8.7
				C349.5,21,348.9,20.1,348.2,19.2z M351.8,12.9h-2.9c0.7-0.9,1.6-2.3,2.2-3.4h2.6C353.2,10.6,352.6,11.8,351.8,12.9z"/>
		</g>
		<line class="st4" x1="148.7" y1="36.5" x2="357.6" y2="36.5"/>
	</g>
</g>
</svg>
