<?xml version="1.0" standalone="no"?><!DOCTYPE svg PUBLIC "-//W3C//DTD SVG 1.1//EN" "http://www.w3.org/Graphics/SVG/1.1/DTD/svg11.dtd">
<svg t="1595745067581" class="icon" viewBox="0 0 1024 1024" version="1.1" xmlns="http://www.w3.org/2000/svg" p-id="3218" width="96" height="96" xmlns:xlink="http://www.w3.org/1999/xlink"><defs><style type="text/css"></style></defs><path d="M512 1.8C230.2 1.8 1.8 230.2 1.8 512s228.4 510.2 510.2 510.2 510.2-228.4 510.2-510.2S793.8 1.8 512 1.8z m0 946.7C270.9 948.5 75.5 753.1 75.5 512S270.9 75.5 512 75.5 948.5 270.9 948.5 512 753.1 948.5 512 948.5z" p-id="3219" fill="#d4237a"></path><path d="M418 316.4c-21.9 0-39.7 17.8-39.7 39.7v311.8c0 21.9 17.8 39.7 39.7 39.7 21.9 0 39.7-17.8 39.7-39.7V356.1c0-21.9-17.8-39.7-39.7-39.7zM606 316.4c-21.9 0-39.7 17.8-39.7 39.7v311.8c0 21.9 17.8 39.7 39.7 39.7 21.9 0 39.7-17.8 39.7-39.7V356.1c0-21.9-17.8-39.7-39.7-39.7z" 
p-id="3220"></path></svg>